# xmcd
# 
# Track frame offsets:
#     150
#     13672
#     28297
#     42748
#     58619
#     74893
#     88972
#     103757
#     119739
#     131676
#     146969
# 
# Disc length: 2179
# 
# Revision: 0
# Processed by: cddbd v1.5.2PL0 Copyright (c) Steve Scherf et al.
# Submitted via: fre:ac v1.0.27
# 
DISCID=ba08810b
DTITLE=High Valley - Dear Life
DYEAR=2016
DGENRE=Country
TTITLE0=She's With Me
TTITLE1=Dear Life
TTITLE2=I Ain't Changin'
TTITLE3=Make You Mine
TTITLE4=Don't Stop
TTITLE5=The Only
TTITLE6=Roads We've Never Taken
TTITLE7=I Be U Be
TTITLE8=Memory Makin'
TTITLE9=Soldier
TTITLE10=Young Forever
EXTD=
EXTT0=
EXTT1=
EXTT2=
EXTT3=
EXTT4=
EXTT5=
EXTT6=
EXTT7=
EXTT8=
EXTT9=
EXTT10=
PLAYORDER=
